<?xml version="1.0" encoding="utf-8"?>
<!-- Generator: Adobe Illustrator 16.0.0, SVG Export Plug-In . SVG Version: 6.00 Build 0)  -->
<!DOCTYPE svg PUBLIC "-//W3C//DTD SVG 1.1//EN" "http://www.w3.org/Graphics/SVG/1.1/DTD/svg11.dtd" [
	<!ENTITY ns_flows "http://ns.adobe.com/Flows/1.0/">
	<!ENTITY ns_extend "http://ns.adobe.com/Extensibility/1.0/">
	<!ENTITY ns_ai "http://ns.adobe.com/AdobeIllustrator/10.0/">
	<!ENTITY ns_graphs "http://ns.adobe.com/Graphs/1.0/">
	<!ENTITY ns_vars "http://ns.adobe.com/Variables/1.0/">
	<!ENTITY ns_imrep "http://ns.adobe.com/ImageReplacement/1.0/">
	<!ENTITY ns_sfw "http://ns.adobe.com/SaveForWeb/1.0/">
	<!ENTITY ns_custom "http://ns.adobe.com/GenericCustomNamespace/1.0/">
	<!ENTITY ns_adobe_xpath "http://ns.adobe.com/XPath/1.0/">
]>
<svg version="1.1" id="Layer_1" xmlns:x="&ns_extend;" xmlns:i="&ns_ai;" xmlns:graph="&ns_graphs;"
	 xmlns="http://www.w3.org/2000/svg" xmlns:xlink="http://www.w3.org/1999/xlink" xmlns:a="http://ns.adobe.com/AdobeSVGViewerExtensions/3.0/"
	 x="0px" y="0px" width="315.329px" height="66.903px" viewBox="0 0 315.329 66.903" enable-background="new 0 0 315.329 66.903"
	 xml:space="preserve">
<metadata>
	<sfw  xmlns="&ns_sfw;">
		<slices></slices>
		<sliceSourceBounds  height="96.619" width="311.104" y="-444.268" x="804.517" bottomLeftOrigin="true"></sliceSourceBounds>
	</sfw>
</metadata>
<text transform="matrix(1 0 0 1 26.3931 63.9082)" fill="#333333" font-family="'BentonSansCond-Book'" font-size="14">Connect</text>
<text transform="matrix(1 0 0 1 133.1572 63.9082)" fill="#333333" font-family="'BentonSansCond-Book'" font-size="14">Learn</text>
<text transform="matrix(1 0 0 1 226.1851 63.9082)" fill="#333333" font-family="'BentonSansCond-Book'" font-size="14">Review</text>
<g>
	<rect x="6.745" y="36.762" fill="#466A7E" width="302" height="3"/>
</g>
<g>
	<circle fill="#466A7E" cx="149.042" cy="37.69" r="13.164"/>
	<g>
		<path fill-rule="evenodd" clip-rule="evenodd" fill="#FFFFFF" d="M151.467,43.007c-1.401,0-2.795,0-4.199,0
			c-0.063-0.384-0.324-0.638-0.581-0.894c-0.44-0.438-0.9-0.857-1.318-1.314c-0.695-0.762-1.156-1.654-1.266-2.688
			c-0.234-2.188,0.567-3.938,2.378-5.17c2.415-1.641,5.691-0.942,7.303,1.524c0.994,1.522,1.189,3.154,0.527,4.858
			c-0.326,0.841-0.909,1.508-1.556,2.123c-0.232,0.223-0.472,0.439-0.702,0.664C151.792,42.363,151.537,42.623,151.467,43.007z
			 M149.532,35.96c0.367,0,0.907-0.044,1.421-0.252c0.351-0.143,0.651-0.349,0.827-0.697c0.188-0.373,0.143-0.602-0.176-0.869
			c-0.094-0.079-0.197-0.149-0.307-0.205c-1.023-0.53-2.096-0.566-3.19-0.283c-0.417,0.108-0.814,0.265-1.142,0.556
			c-0.236,0.211-0.275,0.381-0.155,0.675c0.165,0.401,0.493,0.629,0.874,0.792C148.215,35.904,148.779,35.958,149.532,35.96z"/>
		<path fill-rule="evenodd" clip-rule="evenodd" fill="#FFFFFF" d="M147.256,43.733c1.418,0,2.808,0,4.21,0
			c0,0.395,0.021,0.78-0.007,1.162c-0.021,0.281-0.402,0.573-0.691,0.581c-0.109,0.003-0.219,0.001-0.329,0.001
			c-0.022,0.163-0.034,0.308-0.063,0.45c-0.036,0.169-0.144,0.257-0.325,0.256c-0.451-0.004-0.901,0-1.352-0.002
			c-0.234-0.001-0.324-0.08-0.359-0.318c-0.019-0.12-0.025-0.242-0.041-0.385c-0.086,0-0.172,0.001-0.258,0
			c-0.453-0.006-0.783-0.336-0.785-0.786C147.256,44.377,147.256,44.063,147.256,43.733z"/>
		<path fill-rule="evenodd" clip-rule="evenodd" fill="#FFFFFF" d="M156.086,37.703c0-0.349,0-0.681,0-1.025
			c0.695,0,1.387,0,2.089,0c0,0.342,0,0.677,0,1.025C157.479,37.703,156.792,37.703,156.086,37.703z"/>
		<path fill-rule="evenodd" clip-rule="evenodd" fill="#FFFFFF" d="M150.059,28.561c0,0.7,0,1.383,0,2.081c-0.346,0-0.681,0-1.029,0
			c0-0.693,0-1.379,0-2.081C149.37,28.561,149.706,28.561,150.059,28.561z"/>
		<path fill-rule="evenodd" clip-rule="evenodd" fill="#FFFFFF" d="M140.915,36.673c0.694,0,1.377,0,2.076,0
			c0,0.339,0,0.674,0,1.025c-0.687,0-1.378,0-2.076,0C140.915,37.354,140.915,37.019,140.915,36.673z"/>
		<path fill-rule="evenodd" clip-rule="evenodd" fill="#FFFFFF" d="M144.897,32.37c-0.184,0.202-0.355,0.391-0.532,0.586
			c-0.507-0.392-1.001-0.773-1.503-1.162c0.184-0.201,0.356-0.391,0.533-0.585C143.9,31.6,144.394,31.981,144.897,32.37z"/>
		<path fill-rule="evenodd" clip-rule="evenodd" fill="#FFFFFF" d="M155.315,31.23c0.178,0.196,0.348,0.385,0.53,0.586
			c-0.505,0.39-0.995,0.772-1.5,1.163c-0.179-0.196-0.35-0.384-0.532-0.585C154.318,32.002,154.81,31.621,155.315,31.23z"/>
	</g>
</g>
<g>
	<circle fill="#466A7E" cx="246.633" cy="37.69" r="13.163"/>
	<g>
		<path fill-rule="evenodd" clip-rule="evenodd" fill="#FFFFFF" d="M249.894,31.642c-0.603,1.172-1.339,1.501-2.378,1.451
			c-1.53-0.073-3.068,0.005-4.601-0.028c-0.725-0.015-1.15,0.12-1.139,0.989c0.034,2.76,0.028,5.521,0.001,8.281
			c-0.009,0.846,0.416,1.022,1.145,1.017c2.658-0.02,5.316-0.037,7.975,0.009c0.905,0.017,1.133-0.349,1.105-1.179
			c-0.051-1.481,0.04-2.968-0.033-4.447c-0.053-1.076,0.218-1.899,1.324-2.456c0.398,1.195,0.148,2.402,0.188,3.579
			c0.046,1.327,0.008,2.658,0.008,3.987c-0.001,1.312-0.594,1.964-1.967,1.949c-3.118-0.036-6.236-0.026-9.355-0.005
			c-1.283,0.008-1.891-0.598-1.891-1.857c-0.001-3.169-0.001-6.338,0-9.508c0.002-1.005,0.421-1.746,1.49-1.766
			C244.407,31.609,247.047,31.642,249.894,31.642z"/>
		<path fill-rule="evenodd" clip-rule="evenodd" fill="#FFFFFF" d="M251.858,32.264c0.279,0.262,0.563,0.475,0.781,0.743
			c0.268,0.331-0.027,0.56-0.233,0.766c-1.472,1.482-2.953,2.951-4.421,4.436c-0.39,0.394-0.734,0.505-1.139,0.024
			c-0.262-0.313-0.605-0.539-0.138-0.994c1.558-1.513,3.08-3.062,4.622-4.59C251.469,32.511,251.648,32.415,251.858,32.264z"/>
		<path fill-rule="evenodd" clip-rule="evenodd" fill="#FFFFFF" d="M253.582,32.364c-0.366-0.278-0.95-0.479-0.813-1.09
			c0.146-0.644,0.7-1.006,1.324-1.024c0.507-0.014,0.888,0.409,0.74,0.919C254.667,31.739,254.324,32.27,253.582,32.364z"/>
		<path fill-rule="evenodd" clip-rule="evenodd" fill="#FFFFFF" d="M246.183,39.77c-0.528,0.029-0.843-0.157-0.859-0.664
			c-0.013-0.426,0.103-0.892,0.566-0.936c0.57-0.055,0.935,0.438,1.034,0.907C247.026,39.559,246.539,39.696,246.183,39.77z"/>
	</g>
</g>
<circle fill="#466A7E" cx="52.065" cy="37.998" r="13.162"/>
<g>
	<g>
		<path fill="#FFFFFF" d="M54.584,36.396c0.868,0.677,2.156,1.788,2.864,2.472c0,0,0,0,0.443,0.874
			c0.636,1.254,0.689,2.649,0.146,3.83c-0.514,1.113-1.768,2.021-3.026,2.334c-3.162,0.786-4.469-2.66-4.469-2.66
			c-0.39-1.028-0.386-1.99,0.01-2.137c0.396-0.146,1.118,0.541,1.605,1.527c0,0,0.986,1.997,2.492,1.778
			c0.811-0.118,1.682-0.807,1.994-1.485c0.347-0.752,0.304-1.66-0.12-2.493c-0.371-0.733-0.371-0.733-0.371-0.733
			c-0.745-0.581-1.894-1.374-2.554-1.763c0,0,0,0-1.289,0.458c-2.114,0.751-4.811-0.359-6.166-2.901
			c-0.661-1.241-0.743-2.635-0.224-3.826c0.49-1.124,1.726-2.058,2.978-2.396c3.145-0.851,4.715,2.622,4.715,2.622
			c0.453,1.002,0.503,1.948,0.11,2.103s-1.17-0.496-1.727-1.444c0,0-1.203-2.046-2.707-1.796c-0.808,0.135-1.664,0.841-1.963,1.527
			c-0.33,0.757-0.268,1.665,0.171,2.489c0.81,1.519,2.71,2.603,4.341,2.091C54.224,36.116,54.584,36.396,54.584,36.396z"/>
	</g>
	<path fill="#FFFFFF" d="M55.026,40.268c0.162,0.209,0.084,0.539-0.172,0.738l-0.041,0.031c-0.257,0.199-0.595,0.191-0.757-0.018
		l-4.908-6.327c-0.161-0.208-0.085-0.539,0.173-0.738l0.039-0.031c0.257-0.199,0.596-0.191,0.758,0.018L55.026,40.268z"/>
</g>
<g>
	<g>
		<g>
			<defs>
				<path id="SVGID_1_" d="M52.145-10.245c-0.563-3.183-2.189-5.78-3.876-8.358c-0.599-0.914-1.192-1.862-1.583-2.874
					c-1.254-3.237,0.768-6.769,4.22-7.513c3.423-0.738,6.671,1.55,7.093,5.021c0.135,1.117-0.078,2.198-0.636,3.178
					c-0.646,1.135-1.311,2.261-2.022,3.354c-1.397,2.148-2.564,4.392-3.085,6.926C52.242-10.447,52.205-10.387,52.145-10.245z"/>
			</defs>
			<clipPath id="SVGID_2_">
				<use xlink:href="#SVGID_1_"  overflow="visible"/>
			</clipPath>
			
				<rect x="45.413" y="-29.238" clip-path="url(#SVGID_2_)" fill-rule="evenodd" clip-rule="evenodd" fill="#DE4026" width="12.583" height="0"/>
			
				<rect x="45.454" y="-29.238" clip-path="url(#SVGID_2_)" fill-rule="evenodd" clip-rule="evenodd" fill="#DD3F26" width="12.317" height="0"/>
			
				<rect x="45.454" y="-29.238" clip-path="url(#SVGID_2_)" fill-rule="evenodd" clip-rule="evenodd" fill="#DC3F26" width="12.317" height="0"/>
			
				<rect x="45.745" y="-29.238" clip-path="url(#SVGID_2_)" fill-rule="evenodd" clip-rule="evenodd" fill="#DC3F26" width="12" height="1"/>
			
				<rect x="45.454" y="-28.238" clip-path="url(#SVGID_2_)" fill-rule="evenodd" clip-rule="evenodd" fill="#DA3F26" width="12.317" height="0"/>
			
				<rect x="45.413" y="-28.238" clip-path="url(#SVGID_2_)" fill-rule="evenodd" clip-rule="evenodd" fill="#D93E26" width="12.583" height="0"/>
			
				<rect x="45.454" y="-28.238" clip-path="url(#SVGID_2_)" fill-rule="evenodd" clip-rule="evenodd" fill="#D93F26" width="12.317" height="0"/>
			
				<rect x="45.745" y="-28.238" clip-path="url(#SVGID_2_)" fill-rule="evenodd" clip-rule="evenodd" fill="#D73F26" width="12" height="1"/>
			
				<rect x="45.454" y="-27.238" clip-path="url(#SVGID_2_)" fill-rule="evenodd" clip-rule="evenodd" fill="#D63F26" width="12.317" height="0"/>
			
				<rect x="45.413" y="-27.238" clip-path="url(#SVGID_2_)" fill-rule="evenodd" clip-rule="evenodd" fill="#D63E27" width="12.583" height="0"/>
			
				<rect x="45.454" y="-27.238" clip-path="url(#SVGID_2_)" fill-rule="evenodd" clip-rule="evenodd" fill="#D43E27" width="12.317" height="0"/>
			
				<rect x="45.745" y="-27.238" clip-path="url(#SVGID_2_)" fill-rule="evenodd" clip-rule="evenodd" fill="#D33E27" width="12" height="1"/>
			
				<rect x="45.454" y="-26.238" clip-path="url(#SVGID_2_)" fill-rule="evenodd" clip-rule="evenodd" fill="#D33E27" width="12.317" height="0"/>
			
				<rect x="45.454" y="-26.238" clip-path="url(#SVGID_2_)" fill-rule="evenodd" clip-rule="evenodd" fill="#D23D27" width="12.317" height="0"/>
			
				<rect x="45.413" y="-26.238" clip-path="url(#SVGID_2_)" fill-rule="evenodd" clip-rule="evenodd" fill="#D13D27" width="12.583" height="0"/>
			
				<rect x="45.745" y="-26.238" clip-path="url(#SVGID_2_)" fill-rule="evenodd" clip-rule="evenodd" fill="#D03C27" width="12" height="0"/>
			
				<rect x="45.454" y="-26.238" clip-path="url(#SVGID_2_)" fill-rule="evenodd" clip-rule="evenodd" fill="#CF3C27" width="12.317" height="0"/>
			
				<rect x="45.454" y="-26.238" clip-path="url(#SVGID_2_)" fill-rule="evenodd" clip-rule="evenodd" fill="#CE3B27" width="12.317" height="0"/>
			
				<rect x="45.745" y="-26.238" clip-path="url(#SVGID_2_)" fill-rule="evenodd" clip-rule="evenodd" fill="#CD3B27" width="12" height="1"/>
			
				<rect x="45.413" y="-25.238" clip-path="url(#SVGID_2_)" fill-rule="evenodd" clip-rule="evenodd" fill="#CD3B27" width="12.583" height="0"/>
			
				<rect x="45.454" y="-25.238" clip-path="url(#SVGID_2_)" fill-rule="evenodd" clip-rule="evenodd" fill="#CB3A27" width="12.317" height="0"/>
			
				<rect x="45.454" y="-25.238" clip-path="url(#SVGID_2_)" fill-rule="evenodd" clip-rule="evenodd" fill="#CB3B27" width="12.317" height="0"/>
			
				<rect x="45.745" y="-25.238" clip-path="url(#SVGID_2_)" fill-rule="evenodd" clip-rule="evenodd" fill="#C93B27" width="12" height="1"/>
			
				<rect x="45.413" y="-24.238" clip-path="url(#SVGID_2_)" fill-rule="evenodd" clip-rule="evenodd" fill="#C83A27" width="12.583" height="0"/>
			
				<rect x="45.454" y="-24.238" clip-path="url(#SVGID_2_)" fill-rule="evenodd" clip-rule="evenodd" fill="#C73A27" width="12.317" height="0"/>
			
				<rect x="45.745" y="-24.238" clip-path="url(#SVGID_2_)" fill-rule="evenodd" clip-rule="evenodd" fill="#C63927" width="12" height="1"/>
			
				<rect x="45.454" y="-23.238" clip-path="url(#SVGID_2_)" fill-rule="evenodd" clip-rule="evenodd" fill="#C53A27" width="12.317" height="0"/>
			
				<rect x="45.454" y="-23.238" clip-path="url(#SVGID_2_)" fill-rule="evenodd" clip-rule="evenodd" fill="#C43927" width="12.317" height="0"/>
			
				<rect x="45.413" y="-23.238" clip-path="url(#SVGID_2_)" fill-rule="evenodd" clip-rule="evenodd" fill="#C33927" width="12.583" height="0"/>
			
				<rect x="45.745" y="-23.238" clip-path="url(#SVGID_2_)" fill-rule="evenodd" clip-rule="evenodd" fill="#C23927" width="12" height="1"/>
			
				<rect x="45.454" y="-22.238" clip-path="url(#SVGID_2_)" fill-rule="evenodd" clip-rule="evenodd" fill="#C13927" width="12.317" height="0"/>
			
				<rect x="45.454" y="-22.238" clip-path="url(#SVGID_2_)" fill-rule="evenodd" clip-rule="evenodd" fill="#C03727" width="12.317" height="0"/>
			
				<rect x="45.745" y="-22.238" clip-path="url(#SVGID_2_)" fill-rule="evenodd" clip-rule="evenodd" fill="#BF3826" width="12" height="1"/>
			
				<rect x="45.413" y="-21.238" clip-path="url(#SVGID_2_)" fill-rule="evenodd" clip-rule="evenodd" fill="#BE3826" width="12.583" height="0"/>
			
				<rect x="45.454" y="-21.238" clip-path="url(#SVGID_2_)" fill-rule="evenodd" clip-rule="evenodd" fill="#BD3726" width="12.317" height="0"/>
			
				<rect x="45.454" y="-21.238" clip-path="url(#SVGID_2_)" fill-rule="evenodd" clip-rule="evenodd" fill="#BC3726" width="12.317" height="0"/>
			
				<rect x="45.745" y="-21.238" clip-path="url(#SVGID_2_)" fill-rule="evenodd" clip-rule="evenodd" fill="#BB3626" width="12" height="1"/>
			
				<rect x="45.413" y="-20.238" clip-path="url(#SVGID_2_)" fill-rule="evenodd" clip-rule="evenodd" fill="#BA3626" width="12.583" height="0"/>
			
				<rect x="45.454" y="-20.238" clip-path="url(#SVGID_2_)" fill-rule="evenodd" clip-rule="evenodd" fill="#B93526" width="12.317" height="0"/>
			
				<rect x="45.454" y="-20.238" clip-path="url(#SVGID_2_)" fill-rule="evenodd" clip-rule="evenodd" fill="#B93526" width="12.317" height="0"/>
			
				<rect x="45.745" y="-20.238" clip-path="url(#SVGID_2_)" fill-rule="evenodd" clip-rule="evenodd" fill="#B73526" width="12" height="1"/>
			
				<rect x="45.454" y="-19.238" clip-path="url(#SVGID_2_)" fill-rule="evenodd" clip-rule="evenodd" fill="#B63525" width="12.317" height="0"/>
			
				<rect x="45.413" y="-19.238" clip-path="url(#SVGID_2_)" fill-rule="evenodd" clip-rule="evenodd" fill="#B63425" width="12.583" height="0"/>
			
				<rect x="45.454" y="-19.238" clip-path="url(#SVGID_2_)" fill-rule="evenodd" clip-rule="evenodd" fill="#B53425" width="12.317" height="0"/>
			
				<rect x="45.745" y="-19.238" clip-path="url(#SVGID_2_)" fill-rule="evenodd" clip-rule="evenodd" fill="#B33325" width="12" height="0"/>
			
				<rect x="45.454" y="-19.238" clip-path="url(#SVGID_2_)" fill-rule="evenodd" clip-rule="evenodd" fill="#B23225" width="12.317" height="0"/>
			
				<rect x="45.454" y="-19.238" clip-path="url(#SVGID_2_)" fill-rule="evenodd" clip-rule="evenodd" fill="#B13225" width="12.317" height="0"/>
			
				<rect x="45.413" y="-19.238" clip-path="url(#SVGID_2_)" fill-rule="evenodd" clip-rule="evenodd" fill="#B03225" width="12.583" height="0"/>
			
				<rect x="45.745" y="-19.238" clip-path="url(#SVGID_2_)" fill-rule="evenodd" clip-rule="evenodd" fill="#AF3225" width="12" height="1"/>
			
				<rect x="45.454" y="-18.238" clip-path="url(#SVGID_2_)" fill-rule="evenodd" clip-rule="evenodd" fill="#AE3024" width="12.317" height="0"/>
			
				<rect x="45.745" y="-18.238" clip-path="url(#SVGID_2_)" fill-rule="evenodd" clip-rule="evenodd" fill="#AD3124" width="12" height="1"/>
			
				<rect x="45.413" y="-17.238" clip-path="url(#SVGID_2_)" fill-rule="evenodd" clip-rule="evenodd" fill="#AC3124" width="12.583" height="0"/>
			
				<rect x="45.454" y="-17.238" clip-path="url(#SVGID_2_)" fill-rule="evenodd" clip-rule="evenodd" fill="#AB3124" width="12.317" height="0"/>
			
				<rect x="45.454" y="-17.238" clip-path="url(#SVGID_2_)" fill-rule="evenodd" clip-rule="evenodd" fill="#AA3024" width="12.317" height="0"/>
			
				<rect x="45.745" y="-17.238" clip-path="url(#SVGID_2_)" fill-rule="evenodd" clip-rule="evenodd" fill="#A92F23" width="12" height="1"/>
			
				<rect x="45.454" y="-16.238" clip-path="url(#SVGID_2_)" fill-rule="evenodd" clip-rule="evenodd" fill="#A82F23" width="12.317" height="0"/>
			
				<rect x="45.413" y="-16.238" clip-path="url(#SVGID_2_)" fill-rule="evenodd" clip-rule="evenodd" fill="#A72E23" width="12.583" height="0"/>
			
				<rect x="45.454" y="-16.238" clip-path="url(#SVGID_2_)" fill-rule="evenodd" clip-rule="evenodd" fill="#A62E23" width="12.317" height="0"/>
			
				<rect x="45.745" y="-16.238" clip-path="url(#SVGID_2_)" fill-rule="evenodd" clip-rule="evenodd" fill="#A62E23" width="12" height="1"/>
			
				<rect x="45.454" y="-15.238" clip-path="url(#SVGID_2_)" fill-rule="evenodd" clip-rule="evenodd" fill="#A42E22" width="12.317" height="0"/>
			
				<rect x="45.454" y="-15.238" clip-path="url(#SVGID_2_)" fill-rule="evenodd" clip-rule="evenodd" fill="#A42D22" width="12.317" height="0"/>
			
				<rect x="45.413" y="-15.238" clip-path="url(#SVGID_2_)" fill-rule="evenodd" clip-rule="evenodd" fill="#A32D22" width="12.583" height="0"/>
			
				<rect x="45.745" y="-15.238" clip-path="url(#SVGID_2_)" fill-rule="evenodd" clip-rule="evenodd" fill="#A22D22" width="12" height="1"/>
			
				<rect x="45.454" y="-14.238" clip-path="url(#SVGID_2_)" fill-rule="evenodd" clip-rule="evenodd" fill="#A12D22" width="12.317" height="0"/>
			
				<rect x="45.454" y="-14.238" clip-path="url(#SVGID_2_)" fill-rule="evenodd" clip-rule="evenodd" fill="#A02C22" width="12.317" height="0"/>
			
				<rect x="45.413" y="-14.238" clip-path="url(#SVGID_2_)" fill-rule="evenodd" clip-rule="evenodd" fill="#9E2C21" width="12.583" height="0"/>
			
				<rect x="45.745" y="-14.238" clip-path="url(#SVGID_2_)" fill-rule="evenodd" clip-rule="evenodd" fill="#9D2C21" width="12" height="1"/>
			
				<rect x="45.454" y="-13.238" clip-path="url(#SVGID_2_)" fill-rule="evenodd" clip-rule="evenodd" fill="#9D2C21" width="12.317" height="0"/>
			
				<rect x="45.454" y="-13.238" clip-path="url(#SVGID_2_)" fill-rule="evenodd" clip-rule="evenodd" fill="#9B2B21" width="12.317" height="0"/>
			
				<rect x="45.745" y="-13.238" clip-path="url(#SVGID_2_)" fill-rule="evenodd" clip-rule="evenodd" fill="#9B2B21" width="12" height="0"/>
			
				<rect x="45.413" y="-13.238" clip-path="url(#SVGID_2_)" fill-rule="evenodd" clip-rule="evenodd" fill="#9A2C21" width="12.583" height="0"/>
			
				<rect x="45.454" y="-13.238" clip-path="url(#SVGID_2_)" fill-rule="evenodd" clip-rule="evenodd" fill="#992B22" width="12.317" height="0"/>
			
				<rect x="45.454" y="-13.238" clip-path="url(#SVGID_2_)" fill-rule="evenodd" clip-rule="evenodd" fill="#982A22" width="12.317" height="0"/>
			
				<rect x="45.745" y="-13.238" clip-path="url(#SVGID_2_)" fill-rule="evenodd" clip-rule="evenodd" fill="#972A23" width="12" height="1"/>
			
				<rect x="45.454" y="-12.238" clip-path="url(#SVGID_2_)" fill-rule="evenodd" clip-rule="evenodd" fill="#962A23" width="12.317" height="0"/>
			
				<rect x="45.413" y="-12.238" clip-path="url(#SVGID_2_)" fill-rule="evenodd" clip-rule="evenodd" fill="#952824" width="12.583" height="0"/>
			
				<rect x="45.454" y="-12.238" clip-path="url(#SVGID_2_)" fill-rule="evenodd" clip-rule="evenodd" fill="#942924" width="12.317" height="0"/>
			
				<rect x="45.745" y="-12.238" clip-path="url(#SVGID_2_)" fill-rule="evenodd" clip-rule="evenodd" fill="#932924" width="12" height="1"/>
			
				<rect x="45.454" y="-11.238" clip-path="url(#SVGID_2_)" fill-rule="evenodd" clip-rule="evenodd" fill="#922724" width="12.317" height="0"/>
			
				<rect x="45.413" y="-11.238" clip-path="url(#SVGID_2_)" fill-rule="evenodd" clip-rule="evenodd" fill="#912724" width="12.583" height="0"/>
			
				<rect x="45.745" y="-11.238" clip-path="url(#SVGID_2_)" fill-rule="evenodd" clip-rule="evenodd" fill="#902725" width="12" height="1"/>
		</g>
		<path fill="#333333" d="M51.965-8.622l-0.273-1.543c-0.53-3-2.038-5.481-3.808-8.185c-0.598-0.913-1.215-1.893-1.628-2.96
			c-0.629-1.625-0.516-3.44,0.314-4.978c0.869-1.609,2.413-2.758,4.238-3.151c0.459-0.099,0.924-0.149,1.387-0.149
			c3.235,0,5.867,2.34,6.26,5.565c0.148,1.228-0.085,2.392-0.693,3.46c-0.768,1.35-1.414,2.423-2.036,3.378
			c-1.647,2.533-2.579,4.62-3.021,6.769c-0.018,0.09-0.051,0.162-0.085,0.236c-0.014,0.031-0.031,0.067-0.051,0.114L51.965-8.622z
			 M52.196-28.669c-0.397,0-0.799,0.043-1.193,0.129c-1.562,0.336-2.881,1.316-3.621,2.688c-0.711,1.32-0.807,2.815-0.266,4.208
			c0.38,0.984,0.969,1.918,1.538,2.788c1.481,2.263,2.785,4.38,3.524,6.79c0.543-1.763,1.432-3.555,2.776-5.623
			c0.611-0.94,1.249-1.999,2.008-3.331c0.508-0.893,0.702-1.867,0.579-2.895C57.206-26.669,54.958-28.669,52.196-28.669z"/>
	</g>
	<g>
		<circle fill-rule="evenodd" clip-rule="evenodd" fill="#333333" cx="52.2" cy="-23.036" r="2.098"/>
	</g>
</g>
<circle fill="#466A7E" cx="6.813" cy="38.859" r="4.552"/>
<circle fill="#466A7E" cx="308.813" cy="37.859" r="4.552"/>
<path fill-rule="evenodd" clip-rule="evenodd" fill="#333333" d="M247.215,24.835c-0.719-4.043-2.797-7.343-4.951-10.618
	c-0.764-1.162-1.522-2.365-2.021-3.651c-1.602-4.113,0.979-8.6,5.39-9.545c4.372-0.938,8.52,1.968,9.058,6.379
	c0.174,1.419-0.098,2.792-0.811,4.037c-0.825,1.441-1.674,2.871-2.583,4.262c-1.785,2.729-3.274,5.579-3.941,8.799
	C247.338,24.579,247.292,24.655,247.215,24.835z"/>
<linearGradient id="SVGID_3_" gradientUnits="userSpaceOnUse" x1="247.2524" y1="0.2622" x2="247.2524" y2="25.6917">
	<stop  offset="0" style="stop-color:#DF4126"/>
	<stop  offset="1" style="stop-color:#892529"/>
	<a:midPointStop  offset="0" style="stop-color:#DF4126"/>
	<a:midPointStop  offset="0.5" style="stop-color:#DF4126"/>
	<a:midPointStop  offset="1" style="stop-color:#892529"/>
</linearGradient>
<path fill-rule="evenodd" clip-rule="evenodd" fill="url(#SVGID_3_)" d="M247.218,23.649c-0.667-3.774-2.597-6.854-4.597-9.909
	c-0.709-1.083-1.412-2.208-1.876-3.407c-1.487-3.839,0.909-8.026,5.003-8.909c4.059-0.874,7.909,1.837,8.408,5.954
	c0.162,1.325-0.092,2.605-0.753,3.767c-0.765,1.345-1.554,2.68-2.396,3.977c-1.657,2.548-3.041,5.207-3.659,8.213
	C247.333,23.411,247.289,23.482,247.218,23.649z"/>
<circle fill-rule="evenodd" clip-rule="evenodd" fill="#333333" cx="247.38" cy="8.484" r="2.486"/>
</svg>
